HIERARCHY
ROOT SpineBase
{
  OFFSET 0.000000 0.000000 0.000000
  CHANNELS 6 Xposition Yposition Zposition Zrotation Xrotation Yrotation
  JOINT SpineMid
  {
    OFFSET 0.000000 28.832859 -0.000000
    CHANNELS 3 Zrotation Xrotation Yrotation
    JOINT SpineShoulder
    {
      OFFSET -0.083866 21.442866 -0.682137
      CHANNELS 3 Zrotation Xrotation Yrotation
      JOINT Neck
      {
        OFFSET -0.045844 7.095730 -0.524674
        CHANNELS 3 Zrotation Xrotation Yrotation
        JOINT Head
        {
          OFFSET -2.106632 12.697657 -0.123897
          CHANNELS 3 Zrotation Xrotation Yrotation
          End Site
          {
            OFFSET 0 0 0
          }
        }
      }
      JOINT ShoulderLeft
      {
        OFFSET -15.857318 -2.274647 4.442610
        CHANNELS 3 Zrotation Xrotation Yrotation
        JOINT ElbowLeft
        {
          OFFSET -3.281796 -25.134899 1.967578
          CHANNELS 3 Zrotation Xrotation Yrotation
          JOINT WristLeft
          {
            OFFSET -3.120158 -22.779607 -4.192234
            CHANNELS 3 Zrotation Xrotation Yrotation
            JOINT HandLeft
            {
              OFFSET 0.968998 -6.060690 -1.914493
              CHANNELS 3 Zrotation Xrotation Yrotation
              JOINT HandTipLeft
              {
                OFFSET -0.602055 -6.296125 -1.171221
                CHANNELS 3 Zrotation Xrotation Yrotation
                End Site
                {
                  OFFSET 0 0 0
                }
              }
              JOINT ThumbLeft
              {
                OFFSET -2.663373 -1.000053 -1.541333
                CHANNELS 3 Zrotation Xrotation Yrotation
                End Site
                {
                  OFFSET 0 0 0
                }
              }
            }
          }
        }
      }
      JOINT ShoulderRight
      {
        OFFSET 15.469116 -2.219885 -5.152622
        CHANNELS 3 Zrotation Xrotation Yrotation
        JOINT ElbowRight
        {
          OFFSET 5.950399 -24.838124 -2.688158
          CHANNELS 3 Zrotation Xrotation Yrotation
          JOINT WristRight
          {
            OFFSET 0.235814 -21.477465 -4.684259
            CHANNELS 3 Zrotation Xrotation Yrotation
            JOINT HandRight
            {
              OFFSET -2.091129 -7.398666 -1.266698
              CHANNELS 3 Zrotation Xrotation Yrotation
              JOINT HandTipRight
              {
                OFFSET -0.239682 -6.189477 -1.516848
                CHANNELS 3 Zrotation Xrotation Yrotation
                End Site
                {
                  OFFSET 0 0 0
                }
              }
              JOINT ThumbRight
              {
                OFFSET 2.298038 -1.661704 -2.299554
                CHANNELS 3 Zrotation Xrotation Yrotation
                End Site
                {
                  OFFSET 0 0 0
                }
              }
            }
          }
        }
      }
    }
  }
  JOINT HipLeft
  {
    OFFSET -5.971712 0.483787 -1.786501
    CHANNELS 3 Zrotation Xrotation Yrotation
    JOINT KneeLeft
    {
      OFFSET -6.979954 -30.409971 4.311134
      CHANNELS 3 Zrotation Xrotation Yrotation
      JOINT AnkleLeft
      {
        OFFSET -0.838321 -36.892450 7.073135
        CHANNELS 3 Zrotation Xrotation Yrotation
        JOINT FootLeft
        {
          OFFSET -2.888247 -6.218871 -8.117137
          CHANNELS 3 Zrotation Xrotation Yrotation
          End Site
          {
            OFFSET 0 0 0
          }
        }
      }
    }
  }
  JOINT HipRight
  {
    OFFSET 5.419151 0.716696 -4.761544
    CHANNELS 3 Zrotation Xrotation Yrotation
    JOINT KneeRight
    {
      OFFSET 6.178548 -25.914199 1.387430
      CHANNELS 3 Zrotation Xrotation Yrotation
      JOINT AnkleRight
      {
        OFFSET 1.501880 -38.494928 10.232920
        CHANNELS 3 Zrotation Xrotation Yrotation
        JOINT FootRight
        {
          OFFSET -1.309587 -6.675906 -8.650337
          CHANNELS 3 Zrotation Xrotation Yrotation
          End Site
          {
            OFFSET 0 0 0
          }
        }
      }
    }
  }
}
MOTION
Frames: 14
Frame Time: 0.033333
29.729853 77.075297 389.464192 -2.938211 -3.639851 13.808949 -0.160180 -0.086536 -14.013618 0.032383 -0.072690 -0.139580 0.625958 -1.178283 -0.656205 0.000000 0.000000 0.000000 -2.506325 -8.908049 1.119135 -1.754376 -5.883715 2.582720 -9.493419 -1.641679 -0.558264 7.369820 21.331629 0.246470 0.000000 0.000000 0.000000 0.000000 0.000000 0.000000 -1.291114 2.756326 0.608559 -12.211073 2.416696 3.890662 4.267415 10.274246 -3.602745 -5.985759 -17.369859 2.494532 0.000000 0.000000 0.000000 0.000000 0.000000 0.000000 16.300609 24.156889 -21.841797 9.217797 -21.268292 11.638505 -3.800948 -16.102250 -8.147675 0.000000 0.000000 0.000000 -2.329562 -4.653648 -16.403365 5.735129 0.504079 1.980971 6.986181 11.984494 -12.954606 0.000000 0.000000 0.000000
30.212476 77.064931 388.472805 -2.997320 -3.828022 13.583775 -0.124655 -0.084051 -13.797376 0.052815 -0.069225 -0.140200 0.311088 -0.989276 -0.644205 0.000000 0.000000 0.000000 -3.314036 -10.634075 1.175614 -1.521988 -7.366788 2.866666 -9.631701 0.125970 -0.575945 7.769693 19.269924 0.394887 0.000000 0.000000 0.000000 0.000000 0.000000 0.000000 -1.690788 3.465736 0.839304 -12.826711 1.947356 3.836803 5.539607 11.545480 -4.090148 -7.221658 -15.745074 2.944941 0.000000 0.000000 0.000000 0.000000 0.000000 0.000000 18.245995 24.704051 -22.155420 8.321217 -20.936055 11.724701 -5.473156 -9.958384 -10.673570 0.000000 0.000000 0.000000 -2.438477 -5.763464 -16.551448 4.527753 1.379580 2.026034 7.173759 9.039567 -11.155849 0.000000 0.000000 0.000000
30.756262 77.006616 387.114012 -2.771120 -3.716063 13.466906 -0.122348 -0.103944 -13.663040 0.058675 -0.088674 -0.130382 -0.243941 -1.045860 -0.647353 0.000000 0.000000 0.000000 -4.240220 -12.564181 1.191037 -1.286671 -7.298785 2.992925 -8.966200 -0.987065 -1.729782 11.044639 19.994857 -0.891224 0.000000 0.000000 0.000000 0.000000 0.000000 0.000000 -2.223237 3.764901 0.983911 -13.123610 2.339300 3.877870 6.039943 11.840037 -4.408703 -7.859702 -13.848798 3.370926 0.000000 0.000000 0.000000 0.000000 0.000000 0.000000 20.407556 23.306347 -21.854113 4.814737 -19.549660 10.081859 -2.466278 -11.156504 -14.444029 0.000000 0.000000 0.000000 -3.058150 -6.428968 -16.643105 3.756316 0.944664 1.953472 6.638526 11.707544 -9.046339 0.000000 0.000000 0.000000
31.207006 76.914606 385.583586 -2.451893 -3.439880 13.220616 -0.167902 -0.108094 -13.389617 0.040929 -0.105209 -0.119104 -0.434243 -1.197506 -0.648985 0.000000 0.000000 0.000000 -5.133626 -14.621791 1.167639 -0.220370 -5.430478 2.720622 -9.737635 -5.069700 -2.893388 13.807392 19.513249 -1.843666 0.000000 0.000000 0.000000 0.000000 0.000000 0.000000 -2.657834 3.836419 1.078771 -13.587767 2.262347 3.887697 7.117924 13.541489 -4.974590 -10.226935 -14.622919 3.536565 0.000000 0.000000 0.000000 0.000000 0.000000 0.000000 22.459373 21.558107 -21.181029 0.903688 -18.008521 8.212268 -1.458941 -8.572052 -16.388488 0.000000 0.000000 0.000000 -3.332210 -6.903160 -16.449310 2.840631 -0.338414 1.807956 4.691582 8.189705 -4.066128 0.000000 0.000000 0.000000
31.535298 76.812789 383.938723 -2.132810 -3.040235 13.048595 -0.193266 -0.096500 -13.188986 0.022222 -0.109548 -0.106483 -0.387663 -1.059694 -0.574515 0.000000 0.000000 0.000000 -5.674619 -15.428864 1.084446 0.458437 -4.936998 2.532554 -8.983800 -7.323626 -4.179636 13.883674 18.932286 -1.623807 0.000000 0.000000 0.000000 0.000000 0.000000 0.000000 -2.937026 3.565836 1.075703 -13.531576 2.954417 3.945745 6.870497 13.324829 -5.060401 -10.873515 -14.433874 3.618472 0.000000 0.000000 0.000000 0.000000 0.000000 0.000000 23.984036 19.627543 -20.344339 -2.565722 -16.770544 6.528166 -2.906114 -7.052308 -14.094915 0.000000 0.000000 0.000000 -2.787408 -6.600017 -15.965326 1.592843 -2.397931 1.476964 3.341485 4.063173 0.108061 0.000000 0.000000 0.000000
31.849682 76.697189 382.252331 -1.699867 -2.556857 12.685032 -0.192952 -0.077815 -12.790958 0.020868 -0.105032 -0.086733 -0.301128 -1.414134 -0.583909 0.000000 0.000000 0.000000 -5.626885 -15.889153 1.089371 0.780128 -4.397803 2.275631 -8.686297 -8.505646 -4.673354 13.282627 19.204489 -1.248565 0.000000 0.000000 0.000000 0.000000 0.000000 0.000000 -3.109398 3.158467 1.002700 -12.992825 4.322052 3.966175 6.617783 11.472283 -5.072406 -10.893754 -10.815716 4.168707 0.000000 0.000000 0.000000 0.000000 0.000000 0.000000 24.418523 17.613196 -19.054473 -5.517126 -15.630986 4.966638 -2.585836 -2.006029 -14.707818 0.000000 0.000000 0.000000 -1.574349 -4.780210 -14.777764 0.164092 -6.274421 0.719862 3.632015 2.840533 0.883655 0.000000 0.000000 0.000000
32.209454 76.362657 380.577408 -1.120469 -2.062199 11.782979 -0.255490 -0.129904 -11.852653 0.010622 -0.145470 -0.064255 -0.184653 -1.434697 -0.551623 0.000000 0.000000 0.000000 -6.132776 -15.913582 0.994004 1.333028 -4.370796 2.087139 -7.666180 -7.782286 -4.837257 13.275213 17.488364 -1.347021 0.000000 0.000000 0.000000 0.000000 0.000000 0.000000 -3.287053 3.049947 0.972298 -12.271062 5.560432 3.823856 6.382215 9.614653 -5.090806 -11.286634 -8.409360 4.503510 0.000000 0.000000 0.000000 0.000000 0.000000 0.000000 23.918895 16.431930 -17.456489 -7.251594 -15.371141 4.073768 -7.036105 7.007329 -10.615775 0.000000 0.000000 0.000000 0.362874 -1.329547 -12.632682 -1.915895 -12.086337 -0.626689 -1.078648 11.812422 6.916186 0.000000 0.000000 0.000000
32.598482 75.919973 379.037116 -0.446076 -1.568694 10.687880 -0.298059 -0.150587 -10.721078 0.002538 -0.174351 -0.036469 -0.311364 -1.387956 -0.506086 0.000000 0.000000 0.000000 -6.812695 -14.795499 0.793868 2.468570 -4.189283 1.728231 -8.901393 -10.462350 -4.765448 15.592303 21.673336 -3.040308 0.000000 0.000000 0.000000 0.000000 0.000000 0.000000 -3.530846 2.951444 0.940916 -11.257590 7.470115 3.653781 5.589766 6.433455 -4.923993 -13.575064 -6.048315 4.842355 0.000000 0.000000 0.000000 0.000000 0.000000 0.000000 22.487738 15.545125 -15.727570 -7.759280 -15.657806 3.699126 -6.164427 9.514500 -11.305463 0.000000 0.000000 0.000000 2.575546 3.358435 -10.176969 -4.637374 -19.015379 -2.590283 -1.622375 13.027249 8.338283 0.000000 0.000000 0.000000
33.008245 75.450522 377.659839 0.256319 -1.140673 9.175824 -0.333460 -0.173274 -9.177051 -0.004670 -0.192382 -0.006996 -0.629699 -1.664853 -0.529277 0.000000 0.000000 0.000000 -7.466663 -12.589765 0.539419 3.349362 -4.205876 1.503025 -10.421864 -13.447522 -4.497904 16.475220 21.648482 -3.506498 0.000000 0.000000 0.000000 0.000000 0.000000 0.000000 -3.475540 3.196115 0.938826 -10.173276 8.493709 3.160590 4.644958 4.523452 -4.815714 -12.975633 -6.565061 4.666381 0.000000 0.000000 0.000000 0.000000 0.000000 0.000000 20.466154 15.245461 -13.809827 -7.546034 -16.282299 3.632269 -5.520400 12.359039 -11.886212 0.000000 0.000000 0.000000 4.569012 8.983622 -7.392590 -7.665905 -26.637244 -5.119965 -2.564770 14.810856 9.847699 0.000000 0.000000 0.000000
33.500687 75.028352 376.368083 0.930267 -0.736362 8.055639 -0.335777 -0.172890 -8.030368 -0.005270 -0.193370 0.023193 -0.721533 -1.855706 -0.532113 0.000000 0.000000 0.000000 -8.322105 -9.881146 0.214086 4.296443 -3.916074 1.333129 -12.459487 -16.378115 -3.934203 17.066420 21.602849 -3.832549 0.000000 0.000000 0.000000 0.000000 0.000000 0.000000 -3.498511 3.337664 0.920768 -9.130273 9.296325 2.677925 5.428362 3.011075 -4.895484 -14.799242 -7.747730 4.538081 0.000000 0.000000 0.000000 0.000000 0.000000 0.000000 18.117249 15.011654 -12.387454 -6.138392 -17.072711 4.065034 -4.810344 14.479612 -13.163896 0.000000 0.000000 0.000000 5.641797 13.924177 -5.332547 -9.462407 -32.422386 -7.069865 -2.131033 13.041660 8.699578 0.000000 0.000000 0.000000
33.943286 74.692354 375.224281 1.511397 -0.353427 7.731660 -0.316682 -0.158460 -7.687295 -0.001852 -0.187533 0.050564 -1.134295 -2.218951 -0.566610 0.000000 0.000000 0.000000 -9.221735 -6.838778 -0.138433 5.169367 -4.668738 1.395336 -13.297326 -13.759970 -2.071425 15.226221 19.232683 -3.133905 0.000000 0.000000 0.000000 0.000000 0.000000 0.000000 -3.481218 3.351322 0.875654 -7.929412 9.757639 2.151245 6.193996 2.184900 -4.946981 -13.776356 -5.266885 4.755496 0.000000 0.000000 0.000000 0.000000 0.000000 0.000000 15.684145 14.586708 -11.802166 -3.772827 -17.726730 4.854822 -4.081946 14.665194 -14.666413 0.000000 0.000000 0.000000 6.267774 17.409360 -4.404187 -10.600035 -36.159900 -8.389435 1.700224 3.085120 3.954916 0.000000 0.000000 0.000000
34.358946 74.609627 374.144237 1.936394 -0.059112 7.656323 -0.256494 -0.119033 -7.599708 0.013953 -0.159342 0.073338 -1.460472 -2.072229 -0.518004 0.000000 0.000000 0.000000 -9.970903 -3.934316 -0.453687 5.861829 -2.816167 1.226190 -14.524745 -14.126606 -0.771895 13.719443 18.303483 -2.851400 0.000000 0.000000 0.000000 0.000000 0.000000 0.000000 -3.538883 3.201686 0.814511 -6.337693 9.740988 1.565405 6.410836 1.701723 -4.841151 -12.847741 -3.813027 4.717344 0.000000 0.000000 0.000000 0.000000 0.000000 0.000000 13.269846 14.084215 -11.483585 -1.045894 -17.763092 5.677881 -5.937497 18.224156 -14.108405 0.000000 0.000000 0.000000 5.905805 18.085078 -4.158119 -8.843888 -35.618867 -7.379343 0.609396 -0.141409 3.636655 0.000000 0.000000 0.000000
34.908915 74.693516 372.960137 2.438367 0.370867 7.823821 -0.252491 -0.123407 -7.758416 0.007627 -0.153921 0.096013 -1.878255 -1.973123 -0.473882 0.000000 0.000000 0.000000 -10.824808 -1.849998 -0.739299 6.453122 1.306839 0.819904 -15.439158 -14.587645 0.507020 15.875851 18.663526 -4.691103 0.000000 0.000000 0.000000 0.000000 0.000000 0.000000 -3.570495 2.825649 0.704785 -4.892306 9.143748 1.027664 5.646568 2.000266 -4.677273 -10.262842 -3.817635 4.424867 0.000000 0.000000 0.000000 0.000000 0.000000 0.000000 11.829103 12.234414 -10.971189 -0.639965 -16.651478 5.313877 -4.821992 16.728572 -14.882881 0.000000 0.000000 0.000000 4.372977 17.501674 -4.255716 -4.744340 -33.103056 -5.033413 -1.592510 -2.144028 3.177622 0.000000 0.000000 0.000000
35.445104 74.996021 371.899715 2.815519 0.739088 8.356720 -0.226681 -0.089325 -8.288160 0.000658 -0.127913 0.113482 -2.102863 -1.550964 -0.369998 0.000000 0.000000 0.000000 -11.507841 -0.539327 -0.964763 6.571733 6.599942 0.338949 -15.114555 -11.243676 2.729393 16.002462 13.857939 -5.648751 0.000000 0.000000 0.000000 0.000000 0.000000 0.000000 -3.553374 2.272142 0.569937 -3.651324 7.744045 0.579595 5.700919 3.393565 -4.682323 -9.221046 -5.384283 4.216282 0.000000 0.000000 0.000000 0.000000 0.000000 0.000000 10.414602 10.721764 -11.019322 0.284370 -15.705350 5.201683 -5.941205 18.321137 -13.916710 0.000000 0.000000 0.000000 2.972796 16.037459 -4.919856 -0.425840 -28.257888 -2.527326 -5.402398 -17.250952 9.243578 0.000000 0.000000 0.000000
